<svg id="Layer_1" 
width="128" 
 data-name="Layer 1" xmlns="http://www.w3.org/2000/svg" xmlns:xlink="http://www.w3.org/1999/xlink" viewBox="0 0 516.59 133.36"><defs><style>.cls-1{fill:url(#Gradient_bez_nazwy_7);}.cls-2{fill:#bf068d;}</style><linearGradient id="Gradient_bez_nazwy_7" y1="66.68" x2="205.13" y2="66.68" gradientUnits="userSpaceOnUse"><stop offset="0.13" stop-color="#ca1098"/><stop offset="1" stop-color="#714ed2"/></linearGradient></defs><title>LogoHorizontal1</title><path class="cls-1" d="M198,53.73,169.26,25.31a7.72,7.72,0,0,0-.62-.54,24.39,24.39,0,0,0-34.15.27L102.62,56.91,70.75,25a24.39,24.39,0,0,0-33.82-.58,6.15,6.15,0,0,0-1.07.85L7.11,53.75A24.34,24.34,0,0,0,41.49,88.21L53.38,76.52l31.8,31.8a24.39,24.39,0,0,0,33.06,1.26,6.35,6.35,0,0,0,1.81-1.26l31.74-31.74,11.8,11.6A24.34,24.34,0,1,0,198,53.73ZM143.37,33.92A11.78,11.78,0,0,1,160,50.58L125.87,84.73a24.13,24.13,0,0,0-6.26-10.83l-8.11-8.11ZM32.65,79.29A11.76,11.76,0,0,1,12.56,71,11.66,11.66,0,0,1,16,62.66l14.11-14a24.1,24.1,0,0,0,6.24,10.76l8.18,8.18ZM94.07,99.44,45.21,50.58A11.78,11.78,0,0,1,61.86,33.92l48.86,48.86a11.83,11.83,0,0,1,0,16.66h0a11.84,11.84,0,0,1-16.65,0Zm95.06-20.15a11.84,11.84,0,0,1-16.7,0L160.68,67.7l8.23-8.24a24.25,24.25,0,0,0,6.23-10.67l14,13.85A11.79,11.79,0,0,1,189.13,79.29Z"/><path class="cls-2" d="M242.74,62.83A1.6,1.6,0,0,0,244.58,61V36.76c0-7,1.92-9.19,9.11-9.19h14.2V61a1.61,1.61,0,0,0,1.84,1.84h8.19c1.25,0,1.92-.59,1.92-1.84V27.57h14.7c7.27,0,8.61,2.17,8.61,9.19V61A1.6,1.6,0,0,0,305,62.83h8.18A1.6,1.6,0,0,0,315,61V33.92c0-12.11-4.76-17-19.8-17H252.52c-15,0-19.89,4.85-19.89,17V61c0,1.25.67,1.84,1.93,1.84ZM331.48,11.7h8.19c1.25,0,1.84-.67,1.84-1.93V1.84A1.6,1.6,0,0,0,339.67,0h-8.19c-1.25,0-1.92.58-1.92,1.84V9.77A1.72,1.72,0,0,0,331.48,11.7ZM339.67,17h-8.19c-1.25,0-1.84.67-1.84,1.92V61a1.61,1.61,0,0,0,1.84,1.84h8.19A1.61,1.61,0,0,0,341.51,61V18.88C341.51,17.63,340.92,17,339.67,17ZM358,62.83h8.19A1.6,1.6,0,0,0,368,61V36.76c0-7,1.93-9.19,9.11-9.19h22.22c7.19,0,8.61,2.17,8.61,9.19V61a1.6,1.6,0,0,0,1.84,1.84H418A1.6,1.6,0,0,0,419.79,61V33.92c0-12.11-4.84-17-19.88-17h-24c-15,0-19.88,4.85-19.88,17V61C356.05,62.24,356.72,62.83,358,62.83ZM436.26,11.7h8.19c1.25,0,1.84-.67,1.84-1.93V1.84A1.6,1.6,0,0,0,444.45,0h-8.19c-1.25,0-1.92.58-1.92,1.84V9.77A1.72,1.72,0,0,0,436.26,11.7ZM444.45,17h-8.19c-1.25,0-1.84.67-1.84,1.92V61a1.61,1.61,0,0,0,1.84,1.84h8.19A1.61,1.61,0,0,0,446.29,61V18.88C446.29,17.63,445.7,17,444.45,17ZM277.89,87.32H249.73c-3.43,0-4.6-1.34-4.6-3.59V82.47c0-2.42,1.17-3.76,4.6-3.76h37.68a1.33,1.33,0,0,0,1.51-1.5V70.52a1.33,1.33,0,0,0-1.51-1.5H246.64c-9.86,0-13.12,4.51-13.12,11.45v3.67c0,7.36,3.68,11.28,13,11.28h28.08c3.42,0,4.68,1.34,4.68,3.51v2.26c0,2.84-1.26,4-4.68,4H235a1.33,1.33,0,0,0-1.5,1.5v6.69a1.33,1.33,0,0,0,1.5,1.5H277.8c9.86,0,13.12-4.34,13.12-11.7V98.51C290.92,91.33,287.25,87.32,277.89,87.32ZM382.13,69h-9.44c-1.17,0-1.75.5-1.92,1.34L359.91,104.7a.8.8,0,0,1-.84.58h-.33c-.5,0-.75-.16-.84-.58L346.71,73c-1.09-3-2.34-4-5.35-4h-9.94c-3,0-4.27,1-5.35,4l-6.4,31.67c-.09.42-.34.58-.84.58h-.33a.8.8,0,0,1-.84-.58L306.88,70.36A1.78,1.78,0,0,0,305,69h-9.44c-1.51,0-1.76.84-1.42,2l12.53,38.68c1.34,4.18,2.93,5.18,6.43,5.18h10.53c2.93,0,4.18-1.25,5.6-5.18l6.07-30.5a.67.67,0,0,1,.75-.5h.5a.67.67,0,0,1,.75.5l11,30.5c1.42,3.93,2.68,5.18,5.6,5.18h10.53c3.51,0,5.1-1,6.43-5.18L383.55,71C383.89,69.86,383.55,69,382.13,69Zm44.81,0h-36.1a1.33,1.33,0,0,0-1.5,1.5v7c0,1.09.5,1.51,1.5,1.51h34.93c7.27,0,9.1,2.09,9.1,7.43v1.59h-34C391,88.07,388,92,388,99v4c0,8.27,3,11.86,12.87,11.86h39.77c4.85,0,6.18-1.25,6.18-6.68V86C446.82,73.87,442,69,426.94,69Zm7.93,33.84c0,2.09-.66,2.84-2.42,2.84H404.29c-3.42,0-4.68-1.34-4.68-4.34V99.6c0-2.67,1.26-4.09,4.68-4.09h30.58ZM496.71,69h-23.4c-15,0-19.88,4.85-19.88,17v45.54c0,1.25.66,1.84,1.92,1.84h8.19a1.6,1.6,0,0,0,1.83-1.84V114.89h31.34c15,0,19.88-4.76,19.88-16.88V86C516.59,73.87,511.75,69,496.71,69Zm8,26.65c0,7.11-1.92,9.19-9.19,9.19H465.37V88.24c0-7,1.93-9.19,9.11-9.19h21.06c7.27,0,9.19,2.17,9.19,9.19Z"/></svg>